<svg xmlns="http://www.w3.org/2000/svg" viewBox="0 0 32 32">
  <path d="M7 13.5h18L17.3 29.2a1.5 1.5 0 0 1-2.6 0L7 13.5Z" fill="#f3c76a"/>
  <path d="M10 18.5h12M12.5 23h7" stroke="#d29a35" stroke-width="1.4" stroke-linecap="round"/>
  <path d="M5.5 13.6c-.9-5 4.2-10 10.5-10s11.4 5 10.5 10c-.2 1-1.4 1.3-2 .5-.6-.8-1.8-.8-2.4 0-.7 1-2.1 1-2.8 0-.7-1-2.1-1-2.8 0-.7 1-2.2 1-2.9 0-.6-.8-1.8-.8-2.4 0-.6.8-1.8.5-2-.5Z" fill="#ff3ea5"/>
  <path d="M16 3.6c3.4 0 6.4 1.5 8.3 3.9-2.6-1.4-5.4-1.9-8.6-.7-2.4.9-4.9.6-7-.4C10.6 4.7 13.2 3.6 16 3.6Z" fill="#ffb8dd"/>
</svg>
